<?xml version="1.0" encoding="UTF-8" standalone="no"?>
<svg
   xmlns:dc="http://purl.org/dc/elements/1.1/"
   xmlns:cc="http://creativecommons.org/ns#"
   xmlns:rdf="http://www.w3.org/1999/02/22-rdf-syntax-ns#"
   xmlns:svg="http://www.w3.org/2000/svg"
   xmlns="http://www.w3.org/2000/svg"
   xmlns:sodipodi="http://sodipodi.sourceforge.net/DTD/sodipodi-0.dtd"
   xmlns:inkscape="http://www.inkscape.org/namespaces/inkscape"
   viewBox="0 0 228.35107 195.72796"
   version="1.1"
   id="svg10"
   sodipodi:docname="briefcase.svg"
   width="228.35107"
   height="195.72797"
   style="fill:#abd4db"
   inkscape:version="0.92.4 5da689c313, 2019-01-14">
  <metadata
     id="metadata16">
    <rdf:RDF>
      <cc:Work
         rdf:about="">
        <dc:format>image/svg+xml</dc:format>
        <dc:type
           rdf:resource="http://purl.org/dc/dcmitype/StillImage" />
        <dc:title></dc:title>
      </cc:Work>
    </rdf:RDF>
  </metadata>
  <defs
     id="defs14" />
  <sodipodi:namedview
     pagecolor="#ffffff"
     bordercolor="#666666"
     borderopacity="1"
     objecttolerance="10"
     gridtolerance="10"
     guidetolerance="10"
     inkscape:pageopacity="0"
     inkscape:pageshadow="2"
     inkscape:window-width="1680"
     inkscape:window-height="985"
     id="namedview12"
     showgrid="false"
     inkscape:zoom="0.46127353"
     inkscape:cx="108.39505"
     inkscape:cy="93.527655"
     inkscape:window-x="0"
     inkscape:window-y="0"
     inkscape:window-maximized="1"
     inkscape:current-layer="svg10" />
  <g
     id="g8"
     transform="matrix(0.44632334,0,0,0.44632334,0,-16.311333)">
    <path
       d="m 319.77,338.039 c 0,4.949 -1.811,9.236 -5.424,12.847 -3.617,3.621 -7.902,5.428 -12.851,5.428 h -91.361 c -4.952,0 -9.233,-1.807 -12.85,-5.428 -3.616,-3.61 -5.424,-7.897 -5.424,-12.847 V 292.36 H 0 v 137.044 c 0,12.56 4.471,23.312 13.418,32.257 8.945,8.946 19.701,13.419 32.264,13.419 h 420.266 c 12.56,0 23.315,-4.473 32.261,-13.419 8.949,-8.945 13.418,-19.697 13.418,-32.257 V 292.36 H 319.77 Z"
       id="path2"
       inkscape:connector-curvature="0" />
    <rect
       x="219.26601"
       y="292.35999"
       width="73.096001"
       height="36.544998"
       id="rect4" />
    <path
       d="m 498.208,123.054 c -8.945,-8.947 -19.701,-13.418 -32.261,-13.418 H 365.446 V 63.953 c 0,-7.614 -2.663,-14.084 -7.994,-19.414 -5.325,-5.327 -11.8,-7.993 -19.411,-7.993 H 173.589 c -7.612,0 -14.083,2.666 -19.414,7.993 -5.331,5.327 -7.994,11.799 -7.994,19.414 v 45.683 H 45.682 c -12.562,0 -23.318,4.471 -32.264,13.418 C 4.471,132 0,142.75 0,155.313 V 264.949 H 511.626 V 155.313 c 0,-12.563 -4.468,-23.313 -13.418,-32.259 z M 328.904,109.636 H 182.725 V 73.089 h 146.179 z"
       id="path6"
       inkscape:connector-curvature="0" />
  </g>
</svg>
