<svg height="480pt" viewBox="0 0 480.08706 480" width="480pt" xmlns="http://www.w3.org/2000/svg"><g fill="#000000"><path d="m432.042969 23.972656v72.128906c-70.457031-94.003906-198.605469-123.1875-302.820313-68.964843-104.214844 54.226562-153.859375 175.917969-117.316406 287.566406 1.074219 3.292969 4.144531 5.519531 7.609375 5.519531.847656 0 1.6875-.136718 2.488281-.410156 4.195313-1.375 6.484375-5.890625 5.113282-10.085938-34.585938-105.636718 13.503906-220.65625 112.984374-270.238281 99.484376-49.582031 220.277344-18.730469 283.796876 72.484375h-87.855469v16h112v-104zm0 0"/><path d="m468.179688 165.246094c-1.460938-4.078125-5.902344-6.25-10.019532-4.902344-4.117187 1.347656-6.414062 5.726562-5.179687 9.878906 34.597656 105.640625-13.492188 220.675782-112.984375 270.257813-99.488282 49.585937-220.292969 18.722656-283.808594-72.507813h87.855469v-16h-112v104h16v-72.128906c70.457031 94.003906 198.605469 123.1875 302.820312 68.964844 104.214844-54.222656 153.859375-175.914063 117.316407-287.5625zm0 0"/><path d="m240.042969 231.972656c-30.925781 0-56-25.070312-56-56 0-30.925781 25.074219-56 56-56 30.929687 0 56 25.074219 56 56h16c-.050781-36.640625-27.585938-67.414062-64-71.527344v-24.472656h-16v24.472656c-37.871094 4.355469-65.78125 37.476563-63.660157 75.535157 2.121094 38.0625 33.539063 67.871093 71.660157 67.992187 30.929687 0 56 25.074219 56 56 0 30.929688-25.070313 56-56 56-30.925781 0-56-25.070312-56-56h-16c.054687 36.644532 27.589843 67.417969 64 71.527344v24.472656h16v-24.472656c37.871093-4.355469 65.78125-37.472656 63.660156-75.535156-2.121094-38.058594-33.539063-67.871094-71.660156-67.992188zm0 0"/></g></svg>
