<svg fill="#abd4db" xmlns="http://www.w3.org/2000/svg" viewBox="0 0 603.35431 393.23404">
<g transform="matrix(0.05097476,-0.66027297,-0.98357791,-0.03421921,675.5757,412.21139)">
	<path
   d="m 209.591,337.154 c 1.457,-2.442 2.255,-4.637 2.255,-6.45 0,-181.128 92.53,-222.886 114.75,-236.656 3.86,-2.26 3.625,-3.201 -0.8,-3.201 -143.184,0 -231.642,102.863 -231.642,239.857 0,2.239 0.061,4.385 0.175,6.45 H 11.769 L 153,517.976 294.231,337.154 Z"/>
	<path
   d="M 600.231,454.846 459,274.024 317.769,454.846 h 84.626 c -1.448,2.433 -2.241,4.619 -2.241,6.426 0,181.152 -92.53,222.886 -114.75,236.656 -3.86,2.283 -3.625,3.225 0.8,3.225 143.184,0 231.642,-102.887 231.642,-239.88 0,-2.231 -0.061,-4.369 -0.174,-6.426 h 82.559 z"/>
</g>
</svg>
