<svg fill="#abd4db" xmlns="http://www.w3.org/2000/svg" viewBox="0 0 228.35107 195.72796">
  <g transform="matrix(0.44632334,0,0,0.44632334,0,-16.311333)">
    <path
       d="m 319.77,338.039 c 0,4.949 -1.811,9.236 -5.424,12.847 -3.617,3.621 -7.902,5.428 -12.851,5.428 h -91.361 c -4.952,0 -9.233,-1.807 -12.85,-5.428 -3.616,-3.61 -5.424,-7.897 -5.424,-12.847 V 292.36 H 0 v 137.044 c 0,12.56 4.471,23.312 13.418,32.257 8.945,8.946 19.701,13.419 32.264,13.419 h 420.266 c 12.56,0 23.315,-4.473 32.261,-13.419 8.949,-8.945 13.418,-19.697 13.418,-32.257 V 292.36 H 319.77 Z"/>
    <rect
       x="219.26601"
       y="292.35999"
       width="73.096001"
       height="36.544998"
       id="rect4" />
    <path
       d="m 498.208,123.054 c -8.945,-8.947 -19.701,-13.418 -32.261,-13.418 H 365.446 V 63.953 c 0,-7.614 -2.663,-14.084 -7.994,-19.414 -5.325,-5.327 -11.8,-7.993 -19.411,-7.993 H 173.589 c -7.612,0 -14.083,2.666 -19.414,7.993 -5.331,5.327 -7.994,11.799 -7.994,19.414 v 45.683 H 45.682 c -12.562,0 -23.318,4.471 -32.264,13.418 C 4.471,132 0,142.75 0,155.313 V 264.949 H 511.626 V 155.313 c 0,-12.563 -4.468,-23.313 -13.418,-32.259 z M 328.904,109.636 H 182.725 V 73.089 h 146.179 z"/>
  </g>
</svg>
